<?xml version="1.0" encoding="UTF-8"?>
<svg width="185px" height="164px" viewBox="0 0 185 164" version="1.1" xmlns="http://www.w3.org/2000/svg" xmlns:xlink="http://www.w3.org/1999/xlink">
    <!-- Generator: Sketch 44.1 (41455) - http://www.bohemiancoding.com/sketch -->
    <title>error</title>
    <desc>Created with Sketch.</desc>
    <defs></defs>
    <g id="Symbols" stroke="none" stroke-width="1" fill="none" fill-rule="evenodd">
        <g id="error">
            <g>
                <path d="M16.9600395,108.837513 C10.8933739,108.837513 5.97536973,103.919509 5.97536973,97.8528436 C5.97536973,91.786178 10.8933739,86.8681738 16.9600395,86.8681738 C48.8027038,86.8681738 66.8665538,86.8681738 71.1515896,86.8681738 C77.5791433,86.8681738 77.5105317,77.3970084 71.1515896,77.3970084 C66.9122949,77.3970084 64.0371241,77.3970084 62.5260773,77.3970084 C56.4594117,77.3970084 51.5414075,72.4790042 51.5414075,66.4123386 C51.5414075,60.345673 56.4594117,55.4276688 62.5260773,55.4276688 L155.692351,55.4276688 C161.759016,55.4276688 166.677021,60.345673 166.677021,66.4123386 C166.677021,68.7330611 165.957348,70.885695 164.729003,72.659239 L167.4907,72.659239 C173.557366,72.659239 178.47537,77.5772432 178.47537,83.6439088 C178.47537,89.7105744 173.557366,94.6285786 167.4907,94.6285786 L120.630178,94.6285786 C116.635747,94.6285786 116.635747,99.7731877 120.630178,99.7731877 L145.566479,99.9406022 C151.633144,99.9406022 156.551149,104.858606 156.551149,110.925272 C156.551149,116.991938 151.633144,121.909942 145.566479,121.909942 L118.340115,121.909942 C116.32936,124.14496 113.414523,125.550383 110.171432,125.550383 L42.5909358,125.550383 C36.5242702,125.550383 31.606266,120.632379 31.606266,114.565714 C31.606266,112.466784 32.1949529,110.50535 33.2162246,108.837513 L16.9600395,108.837513 Z" id="Combined-Shape-Copy" fill="#FFFFFF" transform="translate(92.225370, 90.489026) rotate(-150.000000) translate(-92.225370, -90.489026) "></path>
                <path d="M133.83,95.854 L131.098,95.854 L131.098,93.122 C131.098,91.405 129.6935,90 127.976,90 C126.2585,90 124.854,91.405 124.854,93.122 L124.854,95.854 L122.122,95.854 C120.4045,95.854 119,97.2595 119,98.976 C119,100.6935 120.4045,102.0985 122.122,102.0985 L124.854,102.0985 L124.854,104.8305 C124.854,106.5475 126.2585,107.9525 127.976,107.9525 C129.6935,107.9525 131.098,106.5475 131.098,104.8305 L131.098,102.0985 L133.83,102.0985 C135.5475,102.0985 136.952,100.6935 136.952,98.976 C136.952,97.2595 135.5475,95.854 133.83,95.854" id="Fill-5" fill="#F8A4A7"></path>
                <path d="M27.994,87.945 L26.153,87.945 L26.153,86.104 C26.153,84.947 25.206,84 24.0485,84 C22.8915,84 21.9445,84.947 21.9445,86.104 L21.9445,87.945 L20.104,87.945 C18.9465,87.945 18,88.892 18,90.049 C18,91.206 18.9465,92.1535 20.104,92.1535 L21.9445,92.1535 L21.9445,93.9945 C21.9445,95.1515 22.8915,96.0985 24.0485,96.0985 C25.206,96.0985 26.153,95.1515 26.153,93.9945 L26.153,92.1535 L27.994,92.1535 C29.151,92.1535 30.098,91.206 30.098,90.049 C30.098,88.892 29.151,87.945 27.994,87.945" id="Fill-7" fill="#F26065"></path>
                <path d="M118.9435,15.4715 C118.9435,16.8365 117.837,17.943 116.472,17.943 C115.1065,17.943 114,16.8365 114,15.4715 C114,14.107 115.1065,13 116.472,13 C117.837,13 118.9435,14.107 118.9435,15.4715" id="Fill-9" fill="#F26065"></path>
                <path d="M12.9435,40.4715 C12.9435,41.8365 11.837,42.943 10.472,42.943 C9.1065,42.943 8,41.8365 8,40.4715 C8,39.107 9.1065,38 10.472,38 C11.837,38 12.9435,39.107 12.9435,40.4715" id="Fill-11" fill="#FDE8E9"></path>
                <path d="M154.147,66.0735 C154.147,68.8755 151.8755,71.1465 149.074,71.1465 C146.2715,71.1465 144,68.8755 144,66.0735 C144,63.2715 146.2715,61 149.074,61 C151.8755,61 154.147,63.2715 154.147,66.0735" id="Fill-14" fill="#C51D23"></path>
                <path d="M23.706,13.353 C23.706,15.7575 21.7575,17.706 19.353,17.706 C16.9485,17.706 15,15.7575 15,13.353 C15,10.949 16.9485,9 19.353,9 C21.7575,9 23.706,10.949 23.706,13.353 Z" id="Stroke-18" stroke="#FDE8E9" stroke-width="1.7735"></path>
                <path d="M87.188,5.594 C87.188,8.6835 84.6835,11.188 81.594,11.188 C78.5045,11.188 76,8.6835 76,5.594 C76,2.5045 78.5045,0 81.594,0 C84.6835,0 87.188,2.5045 87.188,5.594 Z" id="Stroke-20" stroke="#C51D23" stroke-width="2.279" stroke-linecap="round" stroke-dasharray="0.1675000041723251,3.346499919891357"></path>
                <path d="M78.25,73 C78.25,83.9468333 94.343,83.9468333 94.343,73 C94.343,72.0335017 93.5594983,71.25 92.593,71.25 C91.6265017,71.25 90.843,72.0335017 90.843,73 C90.843,79.2801667 81.75,79.2801667 81.75,73 C81.75,72.0335017 80.9664983,71.25 80,71.25 C79.0335017,71.25 78.25,72.0335017 78.25,73 Z" id="Stroke-46" fill="#11274B" fill-rule="nonzero"></path>
                <path d="M122.8835,83.5535 C130.419,79.032 132.8635,71.8285 132.8635,64.7145 C132.8635,57.5785 129.6855,51.1895 124.661,46.891 C123.825,46.198 122.9455,45.527 122.0215,44.9445 L109.41,37.632 L89,26 L80,33 L85,42 L78,48 L80,40 L72,31 C72,31 73.9803197,17.0917933 73.9803197,17.0917933 C76.2440424,18.318293 67.2855,13.2105 67.2855,13.2105 C63.8105,11.1765 59.764,10 55.4425,10 C42.49,10 32,20.49 32,33.454 L32,95.8435 C32,108.8075 42.49,119.297 55.4425,119.297 C59.731,119.297 63.767,118.1425 67.219,116.1195 L122.8835,83.5535 Z" id="Fill-1" stroke="#FFFFFF" stroke-width="2" fill="#1A325E"></path>
                <path d="M73.704,70.352 C73.704,72.2035 72.2035,73.704 70.352,73.704 C68.501,73.704 67,72.2035 67,70.352 C67,68.501 68.501,67 70.352,67 C72.2035,67 73.704,68.501 73.704,70.352" id="Fill-38" fill="#F26065" opacity="0.195652174"></path>
                <path d="M105.7045,70.352 C105.7045,72.2035 104.2035,73.704 102.3525,73.704 C100.501,73.704 99,72.2035 99,70.352 C99,68.501 100.501,67 102.3525,67 C104.2035,67 105.7045,68.501 105.7045,70.352" id="Fill-40" fill="#F26065" opacity="0.195652174"></path>
                <path d="M99.0895,59.545 C99.0895,61.5025 97.5025,63.0895 95.545,63.0895 C93.587,63.0895 92,61.5025 92,59.545 C92,57.587 93.587,56 95.545,56 C97.5025,56 99.0895,57.587 99.0895,59.545" id="Fill-42" fill="#FEFEFE"></path>
                <path d="M81.09,59.545 C81.09,61.5025 79.5025,63.0895 77.545,63.0895 C75.587,63.0895 74,61.5025 74,59.545 C74,57.587 75.587,56 77.545,56 C79.5025,56 81.09,57.587 81.09,59.545" id="Fill-44" fill="#FEFEFE"></path>
                <path d="M78.25,72 C78.25,82.9468333 94.343,82.9468333 94.343,72 C94.343,71.0335017 93.5594983,70.25 92.593,70.25 C91.6265017,70.25 90.843,71.0335017 90.843,72 C90.843,78.2801667 81.75,78.2801667 81.75,72 C81.75,71.0335017 80.9664983,70.25 80,70.25 C79.0335017,70.25 78.25,71.0335017 78.25,72 Z" id="Stroke-48" fill="#FEFEFE" fill-rule="nonzero" transform="translate(86.296500, 75.230062) rotate(-180.000000) translate(-86.296500, -75.230062) "></path>
                <path d="M41.146,58.916 L41.146,58.916 C38.8655,58.916 37,57.0505 37,54.7695 L37,31.1465 C37,28.8655 38.8655,27 41.146,27 C43.4265,27 45.292,28.8655 45.292,31.1465 L45.292,54.7695 C45.292,57.0505 43.4265,58.916 41.146,58.916" id="Fill-50" fill="#5B6F8F"></path>
                <path d="M41.146,74.9855 L41.146,74.9855 C38.8655,74.9855 37,73.12 37,70.8395 L37,65.146 C37,62.866 38.8655,61 41.146,61 C43.4265,61 45.292,62.866 45.292,65.146 L45.292,70.8395 C45.292,73.12 43.4265,74.9855 41.146,74.9855" id="Fill-52" fill="#5B6F8F"></path>
                <path d="M42.3764157,99.5343013 C45.0363922,97.7281318 49.1413218,97.7180314 52.6725358,99.6075203 C56.5481221,101.681277 58.9468508,105.540014 58.9468508,110.556413 C58.9468508,112.53235 60.5486641,114.134163 62.5246008,114.134163 C64.5005376,114.134163 66.1023508,112.53235 66.1023508,110.556413 C66.1023508,102.854453 62.2122323,96.5965776 56.0484159,93.2984306 C50.2820227,90.2129376 43.3412095,90.2300157 38.356786,93.6145246 C36.7220847,94.7245147 36.2967223,96.9495266 37.4067124,98.5842278 C38.5167025,100.218929 40.7417145,100.644291 42.3764157,99.5343013 Z" id="Stroke-74" fill="#11284C" fill-rule="nonzero" transform="translate(51.445425, 102.581390) rotate(182.000000) translate(-51.445425, -102.581390) "></path>
            </g>
        </g>
    </g>
</svg>