<?xml version="1.0" encoding="UTF-8"?>
<svg width="886px" height="474px" viewBox="0 0 886 474" version="1.1" xmlns="http://www.w3.org/2000/svg" xmlns:xlink="http://www.w3.org/1999/xlink">
    <!-- Generator: Sketch 44.1 (41455) - http://www.bohemiancoding.com/sketch -->
    <title>Welcome graphic</title>
    <desc>Created with Sketch.</desc>
    <defs>
        <polygon id="path-1" points="0 10.4192 0 0.5332 9.8869 0.5332 9.8869 10.4192 3.24400066e-16 10.4192"></polygon>
    </defs>
    <g id="Symbols" stroke="none" stroke-width="1" fill="none" fill-rule="evenodd">
        <g id="Welcome-graphic">
            <g>
                <path d="M550.920079,183.933927 C538.786748,183.933927 528.950739,174.097919 528.950739,161.964587 C528.950739,149.831256 538.786748,139.995248 550.920079,139.995248 C614.605408,139.995248 650.733108,139.995248 659.303179,139.995248 C672.158287,139.995248 672.021063,121.052917 659.303179,121.052917 C650.82459,121.052917 645.074248,121.052917 642.052155,121.052917 C629.918823,121.052917 620.082815,111.216908 620.082815,99.0835772 C620.082815,86.950246 629.918823,77.1142376 642.052155,77.1142376 L828.384702,77.1142376 C840.518033,77.1142376 850.354041,86.950246 850.354041,99.0835772 C850.354041,103.725022 848.914695,108.03029 846.458006,111.577378 L851.9814,111.577378 C864.114731,111.577378 873.950739,121.413386 873.950739,133.546718 C873.950739,145.680049 864.114731,155.516057 851.9814,155.516057 L758.260356,155.516057 C750.271494,155.516057 750.271494,165.805275 758.260356,165.805275 L808.132958,166.140104 C820.266289,166.140104 830.102297,175.976113 830.102297,188.109444 C830.102297,200.242775 820.266289,210.078784 808.132958,210.078784 L753.68023,210.078784 C749.65872,214.54882 743.829046,217.359667 737.342863,217.359667 L602.181872,217.359667 C590.04854,217.359667 580.212532,207.523658 580.212532,195.390327 C580.212532,191.192469 581.389906,187.2696 583.432449,183.933927 L550.920079,183.933927 Z" id="Combined-Shape" fill="#E5F5FC" transform="translate(701.450739, 147.236952) rotate(-330.000000) translate(-701.450739, -147.236952) "></path>
                <path d="M33.9200791,363.675027 C21.7867478,363.675027 11.9507395,353.839019 11.9507395,341.705687 C11.9507395,329.572356 21.7867478,319.736348 33.9200791,319.736348 C97.6054076,319.736348 133.733108,319.736348 142.303179,319.736348 C155.158287,319.736348 155.021063,300.794017 142.303179,300.794017 C133.82459,300.794017 128.074248,300.794017 125.052155,300.794017 C112.918823,300.794017 103.082815,290.958008 103.082815,278.824677 C103.082815,266.691346 112.918823,256.855338 125.052155,256.855338 L311.384702,256.855338 C323.518033,256.855338 333.354041,266.691346 333.354041,278.824677 C333.354041,283.466122 331.914695,287.77139 329.458006,291.318478 L334.9814,291.318478 C347.114731,291.318478 356.950739,301.154486 356.950739,313.287818 C356.950739,325.421149 347.114731,335.257157 334.9814,335.257157 L241.260356,335.257157 C233.271494,335.257157 233.271494,345.546375 241.260356,345.546375 L291.132958,345.881204 C303.266289,345.881204 313.102297,355.717213 313.102297,367.850544 C313.102297,379.983875 303.266289,389.819884 291.132958,389.819884 L236.68023,389.819884 C232.65872,394.28992 226.829046,397.100767 220.342863,397.100767 L85.1818715,397.100767 C73.0485403,397.100767 63.2125319,387.264758 63.2125319,375.131427 C63.2125319,370.933569 64.3899058,367.0107 66.4324493,363.675027 L33.9200791,363.675027 Z" id="Combined-Shape-Copy" fill="#E5F5FC" transform="translate(184.450739, 326.978052) rotate(-150.000000) translate(-184.450739, -326.978052) "></path>
                <path d="M426.66,340.708 L421.196,340.708 L421.196,335.244 C421.196,331.81 418.387,329 414.952,329 C411.517,329 408.708,331.81 408.708,335.244 L408.708,340.708 L403.244,340.708 C399.809,340.708 397,343.519 397,346.952 C397,350.387 399.809,353.197 403.244,353.197 L408.708,353.197 L408.708,358.661 C408.708,362.095 411.517,364.905 414.952,364.905 C418.387,364.905 421.196,362.095 421.196,358.661 L421.196,353.197 L426.66,353.197 C430.095,353.197 432.904,350.387 432.904,346.952 C432.904,343.519 430.095,340.708 426.66,340.708" id="Fill-5" fill="#1A325E"></path>
                <path d="M214.596,325.89 L210.914,325.89 L210.914,322.208 C210.914,319.894 209.02,318 206.705,318 C204.391,318 202.497,319.894 202.497,322.208 L202.497,325.89 L198.816,325.89 C196.501,325.89 194.608,327.784 194.608,330.098 C194.608,332.412 196.501,334.307 198.816,334.307 L202.497,334.307 L202.497,337.989 C202.497,340.303 204.391,342.197 206.705,342.197 C209.02,342.197 210.914,340.303 210.914,337.989 L210.914,334.307 L214.596,334.307 C216.91,334.307 218.804,332.412 218.804,330.098 C218.804,327.784 216.91,325.89 214.596,325.89" id="Fill-7" fill="#139FDA"></path>
                <path d="M354.8531,136.943 C354.8531,139.673 352.6401,141.886 349.9101,141.886 C347.1791,141.886 344.9661,139.673 344.9661,136.943 C344.9661,134.214 347.1791,132 349.9101,132 C352.6401,132 354.8531,134.214 354.8531,136.943" id="Fill-9" fill="#E7EAEF"></path>
                <g id="Group-13" transform="translate(174.000000, 225.000000)">
                    <mask id="mask-2" fill="white">
                        <use xlink:href="#path-1"></use>
                    </mask>
                    <g id="Clip-12"></g>
                    <path d="M9.8869,5.4762 C9.8869,8.2062 7.6739,10.4192 4.9439,10.4192 C2.2129,10.4192 -0.0001,8.2062 -0.0001,5.4762 C-0.0001,2.7472 2.2129,0.5332 4.9439,0.5332 C7.6739,0.5332 9.8869,2.7472 9.8869,5.4762" id="Fill-11" fill="#1A325E" mask="url(#mask-2)"></path>
                </g>
                <path d="M227,87.147 C227,92.751 222.457,97.293 216.854,97.293 C211.249,97.293 206.706,92.751 206.706,87.147 C206.706,81.543 211.249,77 216.854,77 C222.457,77 227,81.543 227,87.147" id="Fill-14" fill="#9AD9F2"></path>
                <path d="M453.097,176.188 C453.097,171.268034 449.10772,167.279 444.188,167.279 C439.267657,167.279 435.279,171.267657 435.279,176.188 C435.279,181.108343 439.267657,185.097 444.188,185.097 C449.10772,185.097 453.097,181.107966 453.097,176.188 Z M457.655,176.188 C457.655,183.625343 451.624971,189.655 444.188,189.655 C436.750343,189.655 430.721,183.625657 430.721,176.188 C430.721,168.750343 436.750343,162.721 444.188,162.721 C451.624971,162.721 457.655,168.750657 457.655,176.188 Z" id="Stroke-16" fill="#139FDA" fill-rule="nonzero"></path>
                <path d="M204.6385,175.706 C204.6385,171.8771 201.535146,168.7735 197.706,168.7735 C193.876854,168.7735 190.7735,171.8771 190.7735,175.706 C190.7735,179.535523 193.876477,182.6385 197.706,182.6385 C201.535523,182.6385 204.6385,179.535523 204.6385,175.706 Z M208.1855,175.706 C208.1855,181.494477 203.494477,186.1855 197.706,186.1855 C191.917523,186.1855 187.2265,181.494477 187.2265,175.706 C187.2265,169.918209 191.917837,165.2265 197.706,165.2265 C203.494163,165.2265 208.1855,169.918209 208.1855,175.706 Z" id="Stroke-18" fill="#E7EAEF" fill-rule="nonzero"></path>
                <path d="M282.49662,112.458399 C282.49662,111.214825 283.504736,110.206709 284.74831,110.206709 C285.991884,110.206709 287,111.214825 287,112.458399 L287,113.446416 C287,114.68999 285.991884,115.698106 284.74831,115.698106 C283.504736,115.698106 282.49662,114.68999 282.49662,113.446416 L282.49662,112.458399 Z M280.771731,117.07564 L280.123477,117.821257 C279.307549,118.759733 279.406894,120.181959 280.34537,120.997887 C281.283846,121.813816 282.706072,121.714471 283.522,120.775995 L284.170253,120.030378 C284.986182,119.091902 284.886837,117.669676 283.948361,116.853748 C283.009885,116.037819 281.587659,116.137164 280.771731,117.07564 Z M276.44231,119.431611 L275.463821,119.56849 C274.232239,119.740773 273.373508,120.878831 273.545791,122.110414 C273.718075,123.341996 274.856133,124.200727 276.087715,124.028443 L277.066205,123.891564 C278.297787,123.719281 279.156518,122.581223 278.984234,121.34964 C278.811951,120.118058 277.673893,119.259327 276.44231,119.431611 Z M271.585983,118.343073 L270.761082,117.799275 C269.722816,117.11482 268.326274,117.40164 267.641819,118.439907 C266.957363,119.478173 267.244184,120.874715 268.282451,121.559171 L269.107351,122.102969 C270.145617,122.787424 271.542159,122.500603 272.226615,121.462337 C272.91107,120.42407 272.624249,119.027528 271.585983,118.343073 Z M268.685794,114.406592 L268.413146,113.45694 C268.069976,112.261653 266.82281,111.570876 265.627523,111.914047 C264.432236,112.257217 263.741459,113.504383 264.08463,114.69967 L264.357278,115.649322 C264.700448,116.844609 265.947614,117.535386 267.142901,117.192215 C268.338188,116.849045 269.028965,115.601879 268.685794,114.406592 Z M269.079834,109.463054 C268.550018,110.588119 267.208472,111.070664 266.083406,110.540848 C264.958341,110.011033 264.475796,108.669487 265.005612,107.544421 L265.42655,106.65056 C265.956365,105.525495 267.297911,105.04295 268.422977,105.572765 C269.548042,106.102581 270.030587,107.444127 269.500771,108.569193 L269.079834,109.463054 Z M272.667768,105.989333 C271.526007,106.482138 270.200929,105.956055 269.708123,104.814294 C269.215318,103.672532 269.741401,102.347454 270.883162,101.854649 L271.790289,101.463116 C272.93205,100.970311 274.257129,101.496393 274.749934,102.638155 C275.24274,103.779916 274.716657,105.104995 273.574895,105.5978 L272.667768,105.989333 Z M277.532749,105.727721 C276.344343,105.361434 275.677883,104.101105 276.04417,102.912699 C276.410457,101.724292 277.670786,101.057833 278.859192,101.42412 L279.803378,101.715134 C280.991785,102.081421 281.658245,103.341749 281.291958,104.530156 C280.92567,105.718563 279.665342,106.385022 278.476936,106.018735 L277.532749,105.727721 Z M281.460072,108.778426 C280.80897,107.718924 281.140044,106.332207 282.199545,105.681105 C283.259047,105.030004 284.645764,105.361077 285.296866,106.420579 L285.814165,107.26235 C286.465266,108.321852 286.134192,109.708569 285.074691,110.359671 C284.01519,111.010772 282.628472,110.679699 281.97737,109.620197 L281.460072,108.778426 Z" id="Stroke-20" fill="#0081B3" fill-rule="nonzero"></path>
                <path d="M779.196,338.661 L779.196,333.197 L784.66,333.197 C788.094,333.197 790.904,330.387 790.904,326.952 C790.904,323.518 788.094,320.708 784.66,320.708 L779.196,320.708 L779.196,315.244 C779.196,311.81 776.386,309 772.952,309 C769.517,309 766.708,311.81 766.708,315.244 L766.708,320.708 L761.244,320.708 C757.809,320.708 755,323.518 755,326.952 C755,330.387 757.809,333.197 761.244,333.197 L766.708,333.197 L766.708,338.661 C766.708,342.095 769.517,344.905 772.952,344.905 C776.386,344.905 779.196,342.095 779.196,338.661" id="Fill-22" fill="#E7EAEF"></path>
                <path d="M727.307,107.988 L727.307,104.306 L730.989,104.306 C733.303,104.306 735.198,102.413 735.198,100.098 C735.198,97.784 733.303,95.89 730.989,95.89 L727.307,95.89 L727.307,92.208 C727.307,89.893 725.413,88 723.099,88 C720.785,88 718.891,89.893 718.891,92.208 L718.891,95.89 L715.208,95.89 C712.894,95.89 711,97.784 711,100.098 C711,102.413 712.894,104.306 715.208,104.306 L718.891,104.306 L718.891,107.988 C718.891,110.302 720.785,112.196 723.099,112.196 C725.413,112.196 727.307,110.302 727.307,107.988" id="Fill-24" fill="#0781B2"></path>
                <path d="M560.943,170.387 C562.844573,170.387 564.386,168.845573 564.386,166.944 C564.386,165.041535 562.844681,163.5 560.943,163.5 C559.041319,163.5 557.5,165.041535 557.5,166.944 C557.5,168.845573 559.041427,170.387 560.943,170.387 Z M560.943,173.387 C557.384573,173.387 554.5,170.502427 554.5,166.944 C554.5,163.384774 557.384371,160.5 560.943,160.5 C564.501629,160.5 567.386,163.384774 567.386,166.944 C567.386,170.502427 564.501427,173.387 560.943,173.387 Z" id="Stroke-26" fill="#11274B" fill-rule="nonzero"></path>
                <path d="M740.943,398.887 C738.214,398.887 736,396.673 736,393.944 C736,391.213 738.214,389 740.943,389 C743.673,389 745.886,391.213 745.886,393.944 C745.886,396.673 743.673,398.887 740.943,398.887" id="Fill-28" fill="#139FDA"></path>
                <path d="M773.146,162.294 C767.542,162.294 763,157.751 763,152.148 C763,146.543 767.542,142 773.146,142 C778.75,142 783.293,146.543 783.293,152.148 C783.293,157.751 778.75,162.294 773.146,162.294" id="Fill-30" fill="#9AD9F2"></path>
                <path d="M545.0231,150.097 C549.943443,150.097 553.9321,146.108343 553.9321,141.188 C553.9321,136.267657 549.943443,132.279 545.0231,132.279 C540.102757,132.279 536.1141,136.267657 536.1141,141.188 C536.1141,146.108343 540.102757,150.097 545.0231,150.097 Z M545.0231,154.655 C537.585443,154.655 531.5561,148.625657 531.5561,141.188 C531.5561,133.750343 537.585443,127.721 545.0231,127.721 C552.460757,127.721 558.4901,133.750343 558.4901,141.188 C558.4901,148.625657 552.460757,154.655 545.0231,154.655 Z" id="Stroke-32" fill="#139FDA" fill-rule="nonzero"></path>
                <path d="M639.6418,109.966 C643.4712,109.966 646.5753,106.862146 646.5753,103.0335 C646.5753,99.203977 643.471323,96.1 639.6418,96.1 C635.813154,96.1 632.7093,99.2041001 632.7093,103.0335 C632.7093,106.862023 635.813277,109.966 639.6418,109.966 Z M639.6418,113.513 C633.854323,113.513 629.1623,108.820977 629.1623,103.0335 C629.1623,97.2452091 633.854137,92.553 639.6418,92.553 C645.430277,92.553 650.1223,97.245023 650.1223,103.0335 C650.1223,108.821163 645.430091,113.513 639.6418,113.513 Z" id="Stroke-34" fill="#1A325E" fill-rule="nonzero"></path>
                <path d="M550.188,372.408075 L549.188,372.408075 C547.929343,372.408075 546.909,373.428418 546.909,374.687075 C546.909,375.945732 547.929343,376.966075 549.188,376.966075 L550.188,376.966075 C551.446657,376.966075 552.467,375.945732 552.467,374.687075 C552.467,373.428418 551.446657,372.408075 550.188,372.408075 Z M545.492134,370.672915 L544.732843,370.022164 C543.777156,369.203092 542.338429,369.31384 541.519357,370.269527 C540.700285,371.225214 540.811033,372.663941 541.76672,373.483014 L542.526011,374.133765 C543.481698,374.952837 544.920425,374.842089 545.739497,373.886402 C546.55857,372.930714 546.447821,371.491988 545.492134,370.672915 Z M543.052196,366.301859 L542.899454,365.313593 C542.707204,364.069705 541.542984,363.217184 540.299096,363.409434 C539.055208,363.601684 538.202687,364.765904 538.394937,366.009792 L538.547679,366.998058 C538.739929,368.241946 539.904149,369.094467 541.148037,368.902217 C542.391925,368.709967 543.244446,367.545747 543.052196,366.301859 Z M544.067627,361.353347 L544.59963,360.506605 C545.26924,359.440846 544.948098,358.034053 543.88234,357.364443 C542.816582,356.694834 541.409789,357.015975 540.740179,358.081733 L540.208176,358.928476 C539.538566,359.994234 539.859708,361.401027 540.925466,362.070637 C541.991224,362.740247 543.398017,362.419105 544.067627,361.353347 Z M548.025619,358.295623 L548.979879,357.996646 C550.180965,357.620336 550.849579,356.341603 550.473269,355.140517 C550.096959,353.939431 548.818226,353.270818 547.61714,353.647128 L546.66288,353.946105 C545.461794,354.322415 544.793181,355.601147 545.16949,356.802233 C545.5458,358.00332 546.824533,358.671933 548.025619,358.295623 Z M553.023631,358.544309 C551.866305,358.049522 551.329212,356.710219 551.824,355.552894 C552.318788,354.395568 553.65809,353.858475 554.815416,354.353263 L555.734908,354.746371 C556.892234,355.241158 557.429327,356.580461 556.934539,357.737786 C556.439751,358.895112 555.100449,359.432205 553.943123,358.937417 L553.023631,358.544309 Z M556.689971,362.041388 C556.1406,360.908953 556.613266,359.54558 557.745701,358.996209 C558.878136,358.446838 560.241509,358.919504 560.79088,360.051939 L561.227354,360.951656 C561.776725,362.084091 561.304059,363.447464 560.171624,363.996835 C559.039189,364.546206 557.675816,364.07354 557.126445,362.941105 L556.689971,362.041388 Z M557.186889,366.973518 C557.497006,365.753664 558.737294,365.016177 559.957148,365.326294 C561.177002,365.636412 561.914489,366.8767 561.604371,368.096554 L561.357984,369.065725 C561.047866,370.285579 559.807578,371.023066 558.587724,370.712948 C557.36787,370.402831 556.630383,369.162543 556.940501,367.942689 L557.186889,366.973518 Z M554.311982,371.115642 C555.344412,370.395707 556.764984,370.649033 557.484919,371.681462 C558.204854,372.713892 557.951528,374.134464 556.919099,374.854399 L556.098836,375.426386 C555.066406,376.146322 553.645834,375.892995 552.925899,374.860566 C552.205964,373.828136 552.45929,372.407564 553.491719,371.687629 L554.311982,371.115642 Z" id="Stroke-36" fill="#9AD9F2" fill-rule="nonzero"></path>
                <path d="M423.1213,289.8801 C438.1923,280.8371 443.0813,266.4301 443.0813,252.2021 C443.0813,237.9301 436.7253,225.1521 426.6763,216.5551 C425.0043,215.1691 423.2453,213.8271 421.3973,212.6621 L396.1743,198.0371 L311.9253,149.1941 C304.9753,145.1261 296.8823,142.7731 288.2393,142.7731 C262.3343,142.7731 241.3543,163.7531 241.3543,189.6811 L241.3543,314.4601 C241.3543,340.3881 262.3343,361.3671 288.2393,361.3671 C296.8163,361.3671 304.8883,359.0581 311.7923,355.0121 L423.1213,289.8801 Z" id="Fill-1" fill="#1A325E"></path>
                <path d="M424.150325,291.595066 L312.803521,356.737624 C305.437862,361.054173 296.995304,363.3671 288.2393,363.3671 C261.225847,363.3671 239.3543,341.488785 239.3543,314.4601 L239.3543,189.6811 C239.3543,162.652237 261.226025,140.7731 288.2393,140.7731 C297.025922,140.7731 305.490107,143.110013 312.928407,147.463847 L397.177513,196.306908 L422.463873,210.970231 C424.24479,212.092941 426.021456,213.414459 427.97645,215.03536 C438.758036,224.259093 445.0813,237.712107 445.0813,252.2021 C445.0813,269.166688 438.484364,282.994262 424.150325,291.595066 Z M422.101698,288.159479 C435.122846,280.342152 441.0813,267.849107 441.0813,252.2021 C441.0813,238.892754 435.277974,226.54593 425.399921,218.094859 C423.592188,216.596343 421.949341,215.374362 420.394087,214.392292 L395.171193,199.767353 L310.914996,150.920161 C304.077059,146.917754 296.309227,144.7731 288.2393,144.7731 C263.435467,144.7731 243.3543,164.861073 243.3543,189.6811 L243.3543,314.4601 C243.3543,339.279923 263.435263,359.3671 288.2393,359.3671 C296.281072,359.3671 304.026023,357.24529 310.78236,353.285826 L422.101698,288.159479 Z" id="Stroke-3" fill="#FEFEFE" fill-rule="nonzero"></path>
                <path d="M325.6349,263.0042 C325.6349,266.7072 322.6339,269.7082 318.9309,269.7082 C315.2289,269.7082 312.2269,266.7072 312.2269,263.0042 C312.2269,259.3022 315.2289,256.3002 318.9309,256.3002 C322.6339,256.3002 325.6349,259.3022 325.6349,263.0042" id="Fill-38" fill="#FEFEFE" opacity="0.195652174"></path>
                <path d="M389.0998,263.0042 C389.0998,266.7072 386.0978,269.7082 382.3958,269.7082 C378.6928,269.7082 375.6908,266.7072 375.6908,263.0042 C375.6908,259.3022 378.6928,256.3002 382.3958,256.3002 C386.0978,256.3002 389.0998,259.3022 389.0998,263.0042" id="Fill-40" fill="#FEFEFE" opacity="0.195652174"></path>
                <path d="M375.6906,240.4378 C375.6906,244.3528 372.5166,247.5268 368.6016,247.5268 C364.6856,247.5268 361.5116,244.3528 361.5116,240.4378 C361.5116,236.5218 364.6856,233.3478 368.6016,233.3478 C372.5166,233.3478 375.6906,236.5218 375.6906,240.4378" id="Fill-42" fill="#FEFEFE"></path>
                <path d="M339.8146,240.4378 C339.8146,244.3528 336.6396,247.5268 332.7246,247.5268 C328.8086,247.5268 325.6346,244.3528 325.6346,240.4378 C325.6346,236.5218 328.8086,233.3478 332.7246,233.3478 C336.6396,233.3478 339.8146,236.5218 339.8146,240.4378" id="Fill-44" fill="#FEFEFE"></path>
                <path d="M333.8166,265.3596 C333.8166,287.253267 366.0026,287.253267 366.0026,265.3596 C366.0026,263.426603 364.435597,261.8596 362.5026,261.8596 C360.569603,261.8596 359.0026,263.426603 359.0026,265.3596 C359.0026,277.919933 340.8166,277.919933 340.8166,265.3596 C340.8166,263.426603 339.249597,261.8596 337.3166,261.8596 C335.383603,261.8596 333.8166,263.426603 333.8166,265.3596 Z" id="Stroke-48" fill="#FEFEFE" fill-rule="nonzero"></path>
                <path d="M260.4963,238.8626 L260.4963,238.8626 C255.9353,238.8626 252.2043,235.1316 252.2043,230.5696 L252.2043,183.3236 C252.2043,178.7616 255.9353,175.0306 260.4963,175.0306 C265.0573,175.0306 268.7883,178.7616 268.7883,183.3236 L268.7883,230.5696 C268.7883,235.1316 265.0573,238.8626 260.4963,238.8626" id="Fill-50" fill="#5B6F8F"></path>
                <path d="M260.4963,271.0774 L260.4963,271.0774 C255.9353,271.0774 252.2043,267.3464 252.2043,262.7854 L252.2043,251.3984 C252.2043,246.8384 255.9353,243.1064 260.4963,243.1064 C265.0573,243.1064 268.7883,246.8384 268.7883,251.3984 L268.7883,262.7854 C268.7883,267.3464 265.0573,271.0774 260.4963,271.0774" id="Fill-52" fill="#5B6F8F"></path>
                <path d="M553.7951,214.26 C538.7251,223.304 533.8351,237.71 533.8351,251.938 C533.8351,266.211 540.1911,278.989 550.2401,287.586 C551.9121,288.972 553.6711,290.313 555.5191,291.479 L580.7431,306.104 L664.9911,354.947 C671.9411,359.015 680.0341,361.367 688.6771,361.367 C714.5821,361.367 735.5621,340.388 735.5621,314.46 L735.5621,189.681 C735.5621,163.753 714.5821,142.773 688.6771,142.773 C680.1001,142.773 672.0281,145.082 665.1241,149.129 L553.7951,214.26 Z" id="Fill-54" fill="#00A1E0"></path>
                <path d="M552.765941,212.545115 L664.112693,147.403585 C671.477944,143.086208 679.920553,140.773 688.6771,140.773 C715.690375,140.773 737.5621,162.652137 737.5621,189.681 L737.5621,314.46 C737.5621,341.488685 715.690553,363.367 688.6771,363.367 C679.88968,363.367 671.425494,361.030619 663.987984,356.677248 L579.739916,307.834209 L554.451872,293.170456 C552.66897,292.04553 550.890095,290.722622 548.93995,289.10574 C538.15826,279.881918 531.8351,266.428847 531.8351,251.938 C531.8351,234.974677 538.432413,221.147134 552.765941,212.545115 Z M554.814764,215.980585 C541.793921,223.799144 535.8351,236.292244 535.8351,251.938 C535.8351,265.248212 541.638331,277.595089 551.516479,286.046241 C553.319607,287.540939 554.964842,288.764463 556.522284,289.748791 L581.746216,304.373752 L666.001404,353.220939 C672.838475,357.222839 680.606291,359.367 688.6771,359.367 C713.481137,359.367 733.5621,339.279823 733.5621,314.46 L733.5621,189.681 C733.5621,164.860973 713.480933,144.773 688.6771,144.773 C680.634897,144.773 672.89004,146.89503 666.134029,150.85528 L554.814764,215.980585 Z" id="Stroke-56" fill="#FEFEFE" fill-rule="nonzero"></path>
                <path d="M655.1994,265.1155 C655.1994,261.4125 658.2014,258.4115 661.9034,258.4115 C665.6064,258.4115 668.6074,261.4125 668.6074,265.1155 C668.6074,268.8175 665.6064,271.8195 661.9034,271.8195 C658.2014,271.8195 655.1994,268.8175 655.1994,265.1155" id="Fill-58" fill="#FEFEFE" opacity="0.502151268"></path>
                <path d="M585.4064,265.1155 C585.4064,261.4125 588.4084,258.4115 592.1104,258.4115 C595.8134,258.4115 598.8154,261.4125 598.8154,265.1155 C598.8154,268.8175 595.8134,271.8195 592.1104,271.8195 C588.4084,271.8195 585.4064,268.8175 585.4064,265.1155" id="Fill-60" fill="#FEFEFE" opacity="0.502151268"></path>
                <path d="M616.9338,245.3547 C616.9338,228.2417 593.8068,228.2417 593.8068,245.3547 C593.8068,247.011554 595.149946,248.3547 596.8068,248.3547 C598.463654,248.3547 599.8068,247.011554 599.8068,245.3547 C599.8068,236.2417 610.9338,236.2417 610.9338,245.3547 C610.9338,247.011554 612.276946,248.3547 613.9338,248.3547 C615.590654,248.3547 616.9338,247.011554 616.9338,245.3547 Z" id="Stroke-62" fill="#FEFEFE" fill-rule="nonzero"></path>
                <path d="M655.8928,245.3547 C655.8928,228.2417 632.7658,228.2417 632.7658,245.3547 C632.7658,247.011554 634.108946,248.3547 635.7658,248.3547 C637.422654,248.3547 638.7658,247.011554 638.7658,245.3547 C638.7658,236.2417 649.8928,236.2417 649.8928,245.3547 C649.8928,247.011554 651.235946,248.3547 652.8928,248.3547 C654.549654,248.3547 655.8928,247.011554 655.8928,245.3547 Z" id="Stroke-64" fill="#FEFEFE" fill-rule="nonzero"></path>
                <path d="M641.3137,265.0042 C641.3137,286.9122 612.7007,286.9122 612.7007,265.0042 L641.3137,265.0042 Z" id="Fill-66" fill="#F7CA10"></path>
                <path d="M641.3137,265.0042 C641.3137,286.9122 612.7007,286.9122 612.7007,265.0042 L641.3137,265.0042 Z" id="Stroke-68" stroke="#0781B2" stroke-width="5" stroke-linecap="round" stroke-linejoin="round"></path>
                <path d="M641.3137,263.0042 C641.3137,284.9122 612.7007,284.9122 612.7007,263.0042 L641.3137,263.0042 Z" id="Fill-70" fill="#F7CA10"></path>
                <path d="M615.352792,265.5042 C617.272034,280.745533 636.742366,280.745533 638.661608,265.5042 L615.352792,265.5042 Z M643.8137,263.0042 C643.8137,288.245533 610.2007,288.245533 610.2007,263.0042 C610.2007,261.623488 611.319988,260.5042 612.7007,260.5042 L641.3137,260.5042 C642.694412,260.5042 643.8137,261.623488 643.8137,263.0042 Z" id="Stroke-72" fill="#FEFEFE" fill-rule="nonzero"></path>
                <path d="M678.74443,168.240377 C684.064383,164.628038 692.274242,164.607837 699.33667,168.386815 C707.087843,172.534327 711.8853,180.251802 711.8853,190.2846 L711.8853,252.0706 C711.8853,256.022474 715.088926,259.2261 719.0408,259.2261 C722.992674,259.2261 726.1963,256.022474 726.1963,252.0706 L726.1963,190.2846 C726.1963,174.88068 718.416063,162.364929 706.08843,155.768635 C694.555644,149.597649 680.674017,149.631805 670.70517,156.400823 C667.435768,158.620803 666.585043,163.070827 668.805023,166.34023 C671.025003,169.609632 675.475027,170.460357 678.74443,168.240377 Z" id="Stroke-74" fill="#FEFEFE" fill-rule="nonzero" opacity="0.293874547"></path>
                <path d="M678.74443,323.71029 C684.064383,320.097951 692.274242,320.07775 699.33667,323.856728 C707.087843,328.004241 711.8853,335.721716 711.8853,345.754513 C711.8853,349.706387 715.088926,352.910013 719.0408,352.910013 C722.992674,352.910013 726.1963,349.706387 726.1963,345.754513 C726.1963,330.350594 718.416063,317.834843 706.08843,311.238549 C694.555644,305.067563 680.674017,305.101719 670.70517,311.870737 C667.435768,314.090717 666.585043,318.540741 668.805023,321.810143 C671.025003,325.079546 675.475027,325.93027 678.74443,323.71029 Z" id="Stroke-74" fill="#0081B3" fill-rule="nonzero" transform="translate(696.882448, 329.804468) rotate(119.000000) translate(-696.882448, -329.804468) "></path>
                <path d="M262.752831,321.068603 C268.072784,317.456264 276.282644,317.436063 283.345072,321.215041 C291.096244,325.362553 295.893702,333.080028 295.893702,343.112826 C295.893702,347.064699 299.097328,350.268326 303.049202,350.268326 C307.001075,350.268326 310.204702,347.064699 310.204702,343.112826 C310.204702,327.708906 302.424465,315.193155 290.096832,308.596861 C278.564045,302.425875 264.682419,302.460031 254.713572,309.229049 C251.444169,311.449029 250.593445,315.899053 252.813425,319.168456 C255.033405,322.437858 259.483429,323.288583 262.752831,321.068603 Z" id="Stroke-74" fill="#11284C" fill-rule="nonzero" transform="translate(280.890849, 327.162781) rotate(-177.000000) translate(-280.890849, -327.162781) "></path>
                <path d="M711.8857,272.3342 L711.8857,294.1742 C711.8857,298.126074 715.089326,301.3297 719.0412,301.3297 C722.993074,301.3297 726.1967,298.126074 726.1967,294.1742 L726.1967,272.3342 C726.1967,268.382326 722.993074,265.1787 719.0412,265.1787 C715.089326,265.1787 711.8857,268.382326 711.8857,272.3342 Z" id="Stroke-76" fill="#FEFEFE" fill-rule="nonzero" opacity="0.293874547"></path>
            </g>
        </g>
    </g>
</svg>